<svg xmlns="http://www.w3.org/2000/svg" viewBox="0 0 24 24" fill="none" stroke="#000" stroke-width="2" stroke-linecap="round" stroke-linejoin="round"><path d="M9 3a2 2 0 0 1 4 0c0 .5-.2 1-.5 1.3.3.2.5.5.5.9V7h1.8c.4 0 .7.2.9.5.3-.3.8-.5 1.3-.5a2 2 0 0 1 0 4c-.5 0-1-.2-1.3-.5-.2.3-.5.5-.9.5H13v2.2c0 .4-.2.7-.5.9.3.3.5.8.5 1.3a2 2 0 0 1-4 0c0-.5.2-1 .5-1.3-.3-.2-.5-.5-.5-.9V11H7.2c-.4 0-.7-.2-.9-.5-.3.3-.8.5-1.3.5a2 2 0 0 1 0-4c.5 0 1 .2 1.3.5.2-.3.5-.5.9-.5H9V5.2c0-.4.2-.7.5-.9C9.2 4 9 3.5 9 3z"/></svg>